 <svg  version="1.0" xmlns="http://www.w3.org/2000/svg"  width="300.000000pt" height="300.000000pt" viewBox="0 0 300.000000 300.000000"  preserveAspectRatio="xMidYMid meet">  <g transform="translate(0.000000,300.000000) scale(0.100000,-0.100000)" fill="#f70808" stroke="none"> <path d="M1325 2990 c-56 -8 -104 -38 -138 -87 -28 -39 -31 -55 -67 -354 -22 -173 -46 -366 -54 -429 -9 -63 -25 -196 -36 -295 -23 -192 -51 -344 -76 -403 -12 -30 -54 -85 -129 -168 -5 -7 -37 -43 -70 -82 -40 -47 -65 -69 -75 -65 -8 3 -27 10 -41 16 -14 5 -37 7 -51 4 -18 -5 -111 -103 -285 -298 -142 -160 -266 -304 -276 -319 -11 -17 -17 -42 -15 -62 l3 -33 35 52 c19 29 36 50 38 48 2 -2 -3 -14 -12 -27 -13 -19 -16 -54 -16 -205 0 -170 1 -184 20 -203 11 -11 24 -21 30 -21 5 -1 15 -3 20 -4 6 -1 40 -3 76 -4 65 -1 66 -1 60 -26 -7 -27 3 -31 35 -15 25 14 25 56 0 70 -11 5 -57 10 -103 10 -52 0 -89 5 -96 12 -8 8 -12 64 -12 185 l0 173 166 187 c92 104 170 191 173 195 4 4 96 -78 205 -182 109 -105 206 -190 215 -190 9 0 22 5 29 12 31 31 12 55 -187 244 l-199 188 55 60 c31 34 60 63 65 64 7 3 162 -142 561 -527 48 -47 87 -90 87 -95 0 -6 -24 -39 -54 -73 l-53 -61 -64 64 c-74 75 -94 84 -121 56 -29 -28 -18 -50 57 -116 36 -32 65 -61 65 -65 0 -15 -82 -102 -111 -116 -22 -12 -76 -15 -264 -15 -144 0 -244 -4 -256 -10 -33 -18 -22 -62 19 -74 21 -7 22 -5 16 18 l-6 25 241 3 240 3 -27 -22 -27 -22 33 -1 c60 0 107 35 234 176 150 167 158 178 158 231 0 33 -7 50 -30 77 l-31 34 86 119 c47 65 95 139 107 166 12 26 24 47 28 47 4 0 16 -21 28 -47 12 -27 60 -101 107 -166 l86 -119 -31 -34 c-23 -27 -30 -44 -30 -77 0 -53 8 -64 158 -231 127 -141 174 -176 234 -176 l33 1 -27 22 -27 22 418 -3 c268 -2 428 1 445 8 46 17 56 59 53 238 l-2 161 23 -21 22 -21 0 35 c0 38 -24 76 -107 167 -42 47 -53 53 -75 48 -14 -4 -29 -14 -32 -23 -8 -20 4 -39 78 -123 l56 -65 0 -171 c0 -120 -4 -175 -12 -183 -9 -9 -118 -12 -430 -12 -349 0 -424 2 -447 15 -31 16 -113 104 -109 116 3 7 433 421 588 566 l66 61 48 -54 c39 -44 53 -55 75 -52 22 3 26 8 26 35 0 26 -23 57 -138 187 -143 161 -167 179 -216 159 -14 -6 -33 -13 -41 -16 -10 -4 -35 18 -75 65 -33 39 -65 75 -70 82 -62 69 -115 137 -128 161 -23 47 -55 220 -82 450 -14 116 -30 246 -36 290 -5 44 -28 222 -49 395 -37 299 -41 316 -67 355 -50 71 -138 102 -228 83 -22 -5 -50 -19 -62 -30 l-23 -21 -23 21 c-27 26 -96 40 -152 32z m68 -28 c15 -16 14 -17 -24 -14 -33 3 -38 7 -28 18 15 19 33 18 52 -4z m267 3 c11 -13 7 -15 -25 -15 -32 0 -36 2 -25 15 7 8 18 15 25 15 7 0 18 -7 25 -15z m-130 -48 l30 11 -19 -26 c-23 -33 -32 -75 -32 -146 0 -31 -5 -58 -10 -61 -5 -4 -9 28 -9 77 0 72 -3 88 -25 120 l-24 36 29 -11 c22 -8 38 -8 60 0z m-103 -31 l28 -24 3 -162 c3 -154 2 -162 -15 -155 -68 27 -163 12 -213 -35 -32 -30 -46 -38 -36 -21 3 4 14 81 25 170 13 101 26 172 37 190 37 63 120 81 171 37z m273 8 c48 -29 60 -64 81 -235 11 -89 22 -166 25 -171 3 -5 -15 6 -40 26 -62 47 -138 58 -209 30 -17 -6 -18 2 -15 156 l3 162 28 24 c33 29 86 32 127 8z m-196 -299 c-3 -11 5 -35 16 -53 18 -30 24 -33 53 -27 l32 7 -38 -35 c-20 -19 -42 -49 -48 -66 -14 -40 -22 -39 -37 4 -7 18 -26 45 -42 59 -36 30 -37 35 -6 29 34 -7 56 29 57 97 1 42 3 49 9 30 4 -14 6 -34 4 -45z m-293 -125 c10 0 34 10 54 21 20 12 38 19 40 17 3 -3 -5 -10 -18 -17 -12 -7 -35 -30 -50 -52 -30 -42 -31 -45 -112 -464 -53 -271 -68 -325 -59 -215 7 102 82 709 90 734 7 20 7 20 22 -2 8 -12 23 -22 33 -22z m573 0 c11 0 28 7 38 16 14 14 18 14 23 3 5 -16 81 -630 89 -729 9 -104 -8 -37 -69 275 -30 154 -60 300 -67 325 -13 50 -53 120 -68 120 -6 0 -10 5 -10 11 0 5 10 3 22 -5 12 -9 31 -16 42 -16z m-353 -26 l24 -26 0 -701 c0 -653 -1 -706 -18 -762 -26 -82 -54 -134 -136 -250 -39 -55 -72 -104 -74 -110 -2 -5 -102 84 -223 199 -120 115 -228 218 -239 228 -14 13 -16 21 -9 26 6 4 64 68 129 142 76 87 128 156 146 195 21 46 49 168 118 527 50 257 97 481 106 498 32 62 131 82 176 34z m269 11 c16 -9 37 -29 45 -45 9 -17 56 -241 106 -498 70 -361 96 -481 118 -527 18 -38 70 -108 146 -195 65 -74 123 -138 129 -142 7 -5 5 -13 -9 -26 -11 -10 -119 -113 -239 -228 -121 -115 -221 -204 -223 -199 -2 6 -35 55 -74 110 -82 116 -110 168 -136 250 -17 56 -18 109 -18 762 l0 701 24 26 c29 31 85 35 131 11z m-961 -1383 c-22 -34 0 -73 85 -156 232 -226 353 -337 374 -343 13 -3 34 -1 47 5 23 11 23 10 13 -19 -8 -22 -7 -38 1 -56 6 -13 7 -23 2 -21 -5 1 -95 86 -201 188 -248 240 -251 242 -345 329 -59 55 -74 72 -55 68 14 -3 36 1 50 8 34 19 42 18 29 -3z m1600 -2 c40 21 42 9 5 -21 -45 -35 -262 -238 -410 -384 -56 -55 -130 -127 -164 -160 l-61 -60 23 42 c22 40 22 43 6 76 l-17 35 29 -16 c21 -12 35 -14 54 -7 24 9 147 122 374 342 l95 92 -7 41 -6 41 30 -16 c22 -11 35 -13 49 -5z m-824 -58 c4 -20 13 -57 21 -81 20 -65 19 -79 -7 -55 -19 17 -22 18 -50 2 -35 -20 -34 -22 -9 70 11 39 20 81 20 92 0 34 19 13 25 -28z m935 -34 l57 -62 -131 -126 c-72 -69 -221 -212 -330 -317 l-199 -190 -54 61 c-29 33 -53 66 -53 72 0 11 42 52 407 402 128 122 235 222 239 222 4 0 32 -28 64 -62z m-1968 -28 c-16 -28 -16 -31 1 -62 10 -18 73 -85 140 -148 67 -63 142 -137 167 -165 38 -42 -89 69 -195 170 -83 80 -139 125 -155 125 -9 0 -29 -9 -43 -20 -52 -41 -37 -18 57 87 21 23 40 43 42 43 2 0 -5 -13 -14 -30z m2099 -51 l31 -39 -31 6 c-49 10 -26 30 -430 -361 -260 -251 -261 -253 -261 -290 0 -17 5 -36 12 -43 7 -7 8 -12 3 -12 -11 0 -105 101 -105 113 0 4 9 3 19 -3 41 -21 44 -19 241 165 120 112 298 283 389 373 80 79 83 84 78 118 -5 31 -4 34 9 23 8 -7 28 -29 45 -50z m-1425 -639 c11 0 25 5 32 12 7 7 12 8 12 4 0 -11 -65 -86 -91 -104 -21 -15 -21 -15 -4 11 17 27 14 55 -8 80 -7 7 -28 31 -47 52 l-35 38 61 -46 c33 -26 69 -47 80 -47z"/> <path d="M2716 722 c-7 -12 22 -52 40 -52 8 0 14 4 14 8 0 15 -48 54 -54 44z"/> <path d="M8 105 c6 -47 50 -91 96 -97 l35 -4 -67 68 c-37 37 -67 68 -67 68 -1 0 1 -16 3 -35z"/> <path d="M2931 75 l-64 -65 31 0 c41 0 88 47 94 95 2 19 4 35 3 35 0 0 -29 -29 -64 -65z"/> <path d="M355 60 c-4 -6 9 -10 32 -10 28 0 34 3 23 10 -20 13 -47 13 -55 0z"/> </g> </svg> 